# xmcd
#
# Track frame offsets:
#	150
#	11110
#	21267
#	31424
#	42647
#	54575
#	65878
#	77487
#	89903
#	99357
#
# Disc length: 1460 seconds
#
# Revision: 1
# Processed by: cddbd v1.5.2PL0 Copyright (c) Steve Scherf et al.
# Submitted via: audiograbber 1.83.01
#
DISCID=8705b20a
DTITLE=George Jones - Sings The Songs Of Dallas Frazier
DYEAR=1968
DGENRE=Country
TTITLE0=I Can't Get There From Here
TTITLE1=Looking For My Feel Good
TTITLE2=When Love Was Green
TTITLE3=Hangin' On To One
TTITLE4=Half Of Me Is Gone
TTITLE5=The Honky Tonk Downstairs
TTITLE6=My Baby Left Her Jinglin' John For Foldin' Fred
TTITLE7=The Girl I Almost Knew
TTITLE8=There Ain't No Grave Deep Enough
TTITLE9=There's Nothing Left For You
EXTD=
EXTT0=
EXTT1=
EXTT2=
EXTT3=
EXTT4=
EXTT5=
EXTT6=
EXTT7=
EXTT8=
EXTT9=
PLAYORDER=
